<svg fill="none" version="1.1" viewBox="0 0 20 20" xmlns="http://www.w3.org/2000/svg">
 <path d="m15.62 2.5c-0.8288 0-1.624 0.3292-2.21 0.9153-0.5861 0.586-0.9153 1.381-0.9153 2.21 0 0.1658-0.0658 0.3247-0.1831 0.4419-0.1172 0.1172-0.2761 0.1831-0.4419 0.1831s-0.3247-0.06585-0.4419-0.1831c-0.1173-0.1172-0.1831-0.2762-0.1831-0.4419 0-0.8653 0.2566-1.711 0.7373-2.431 0.4808-0.7195 1.164-1.28 1.964-1.611 0.7994-0.3311 1.679-0.4178 2.528-0.249 0.8487 0.1688 1.628 0.5855 2.24 1.197 0.6118 0.6118 1.028 1.391 1.197 2.24s0.0822 1.728-0.2489 2.528c-0.3312 0.7994-0.8919 1.483-1.611 1.963-0.7194 0.4807-1.565 0.7373-2.431 0.7373h-15c-0.1658 0-0.3247-0.06585-0.4419-0.1831-0.1172-0.1172-0.1831-0.2762-0.1831-0.4419s0.06585-0.3247 0.1831-0.4419c0.1172-0.1172 0.2762-0.1831 0.4419-0.1831h15c0.8288 0 1.624-0.3292 2.21-0.9153 0.5861-0.586 0.9153-1.381 0.9153-2.21s-0.3292-1.624-0.9153-2.21c-0.586-0.586-1.381-0.9153-2.21-0.9153zm-8.75 1.25c-0.3315 0-0.6495 0.1317-0.8839 0.3661s-0.3661 0.5524-0.3661 0.8839c0 0.1658-0.06585 0.3247-0.1831 0.4419s-0.2762 0.1831-0.4419 0.1831-0.3247-0.06585-0.4419-0.1831-0.1831-0.2762-0.1831-0.4419c0-0.4944 0.1466-0.9778 0.4213-1.389 0.2747-0.4111 0.6652-0.7316 1.122-0.9208 0.4568-0.1892 0.9595-0.2387 1.444-0.1423 0.485 0.09646 0.9304 0.3346 1.28 0.6842s0.5877 0.7951 0.6842 1.28c0.09647 0.485 0.04696 0.9876-0.1423 1.444-0.1892 0.4568-0.5096 0.8473-0.9208 1.122-0.4111 0.2747-0.8945 0.4213-1.389 0.4213h-6.25c-0.1658 0-0.3247-0.06585-0.4419-0.1831-0.1172-0.1172-0.1831-0.2762-0.1831-0.4419s0.06585-0.3247 0.1831-0.4419c0.1172-0.1172 0.2762-0.1831 0.4419-0.1831h6.25c0.3315 0 0.6495-0.1317 0.8839-0.3661s0.3661-0.5524 0.3661-0.8839-0.1317-0.6495-0.3661-0.8839-0.5524-0.3661-0.8839-0.3661zm-6.875 8.125c0-0.1658 0.06585-0.3247 0.1831-0.4419 0.1172-0.1173 0.2762-0.1831 0.4419-0.1831h12.55c0.7417 0 1.467 0.2199 2.083 0.632 0.6167 0.412 1.097 0.9977 1.381 1.683 0.2839 0.6853 0.3581 1.439 0.2134 2.167-0.1446 0.7274-0.5018 1.396-1.026 1.92-0.5245 0.5244-1.193 0.8816-1.92 1.026-0.7274 0.1447-1.481 0.0705-2.167-0.2134-0.6852-0.2838-1.271-0.7644-1.683-1.381-0.4121-0.6167-0.632-1.342-0.632-2.083 0-0.1658 0.06585-0.3247 0.1831-0.4419 0.1172-0.1173 0.2762-0.1831 0.4419-0.1831 0.1658 0 0.3247 0.0658 0.4419 0.1831 0.1173 0.1172 0.1831 0.2761 0.1831 0.4419 0 0.4945 0.1466 0.9778 0.4213 1.389s0.6652 0.7316 1.122 0.9208 0.9595 0.2387 1.444 0.1423c0.485-0.0965 0.9304-0.3346 1.28-0.6842 0.3496-0.3497 0.5877-0.7951 0.6842-1.28 0.0964-0.4849 0.0469-0.9876-0.1423-1.444s-0.5097-0.8473-0.9208-1.122-0.8944-0.4213-1.389-0.4213h-12.55c-0.1658 0-0.3247-0.0658-0.4419-0.1831-0.1172-0.1172-0.1831-0.2761-0.1831-0.4419z" fill="#101828"/>
</svg>
