<svg fill="none" version="1.1" viewBox="0 0 32 32" xmlns="http://www.w3.org/2000/svg">
 <path d="m8 4v4h-4v-4h4zm2 24v-4c0-0.5304-0.2107-1.039-0.5858-1.414-0.3751-0.3751-0.8838-0.5858-1.414-0.5858h-4c-0.5304 0-1.039 0.2107-1.414 0.5858-0.3751 0.3751-0.5858 0.8838-0.5858 1.414v4c0 0.5304 0.2107 1.039 0.5858 1.414 0.3751 0.3751 0.8838 0.5858 1.414 0.5858h4c0.5304 0 1.039-0.2107 1.414-0.5858 0.3751-0.3751 0.5858-0.8838 0.5858-1.414zm0-10v-4c0-0.5304-0.2107-1.039-0.5858-1.414-0.3751-0.3751-0.8838-0.5858-1.414-0.5858h-4c-0.5304 0-1.039 0.2107-1.414 0.5858-0.3751 0.3751-0.5858 0.8838-0.5858 1.414v4c0 0.5304 0.2107 1.039 0.5858 1.414 0.3751 0.3751 0.8838 0.5858 1.414 0.5858h4c0.5304 0 1.039-0.2107 1.414-0.5858 0.3751-0.3751 0.5858-0.8838 0.5858-1.414zm0-10v-4c0-0.5304-0.2107-1.039-0.5858-1.414-0.3751-0.3751-0.8838-0.5858-1.414-0.5858h-4c-0.5304 0-1.039 0.2107-1.414 0.5858-0.3751 0.3751-0.5858 0.8838-0.5858 1.414v4c0 0.5304 0.2107 1.039 0.5858 1.414 0.3751 0.3751 0.8838 0.5858 1.414 0.5858h4c0.5304 0 1.039-0.2107 1.414-0.5858 0.3751-0.3751 0.5858-0.8838 0.5858-1.414zm10 20v-4c0-0.5304-0.2107-1.039-0.5858-1.414s-0.8838-0.5858-1.414-0.5858h-4c-0.5304 0-1.039 0.2107-1.414 0.5858s-0.5858 0.8838-0.5858 1.414v4c0 0.5304 0.2107 1.039 0.5858 1.414s0.8838 0.5858 1.414 0.5858h4c0.5304 0 1.039-0.2107 1.414-0.5858s0.5858-0.8838 0.5858-1.414zm0-10v-4c0-0.5304-0.2107-1.039-0.5858-1.414s-0.8838-0.5858-1.414-0.5858h-4c-0.5304 0-1.039 0.2107-1.414 0.5858s-0.5858 0.8838-0.5858 1.414v4c0 0.5304 0.2107 1.039 0.5858 1.414s0.8838 0.5858 1.414 0.5858h4c0.5304 0 1.039-0.2107 1.414-0.5858s0.5858-0.8838 0.5858-1.414zm0-10v-4c0-0.5304-0.2107-1.039-0.5858-1.414-0.3751-0.3751-0.8838-0.5858-1.414-0.5858h-4c-0.5304 0-1.039 0.2107-1.414 0.5858-0.3751 0.3751-0.5858 0.8838-0.5858 1.414v4c0 0.5304 0.2107 1.039 0.5858 1.414 0.3751 0.3751 0.8838 0.5858 1.414 0.5858h4c0.5304 0 1.039-0.2107 1.414-0.5858 0.3751-0.3751 0.5858-0.8838 0.5858-1.414zm-2-4v4h-4v-4h4zm10 0v4h-4v-4h4zm-20 10v4h-4v-4h4zm10 0v4h-4v-4h4zm10 0h-4v4h4v-4zm-20 10v4h-4v-4h4zm10 0v4h-4v-4h4zm10 0v4h-4v-4h4zm-4-22c-0.5304 0-1.039 0.2107-1.414 0.5858-0.3751 0.3751-0.5858 0.8838-0.5858 1.414v4c0 0.5304 0.2107 1.039 0.5858 1.414 0.3751 0.3751 0.8838 0.5858 1.414 0.5858h4c0.5304 0 1.039-0.2107 1.414-0.5858 0.3751-0.3751 0.5858-0.8838 0.5858-1.414v-4c0-0.5304-0.2107-1.039-0.5858-1.414-0.3751-0.3751-0.8838-0.5858-1.414-0.5858h-4zm-2 12c0-0.5304 0.2107-1.039 0.5858-1.414s0.8838-0.5858 1.414-0.5858h4c0.5304 0 1.039 0.2107 1.414 0.5858s0.5858 0.8838 0.5858 1.414v4c0 0.5304-0.2107 1.039-0.5858 1.414s-0.8838 0.5858-1.414 0.5858h-4c-0.5304 0-1.039-0.2107-1.414-0.5858s-0.5858-0.8838-0.5858-1.414v-4zm2 8c-0.5304 0-1.039 0.2107-1.414 0.5858s-0.5858 0.8838-0.5858 1.414v4c0 0.5304 0.2107 1.039 0.5858 1.414s0.8838 0.5858 1.414 0.5858h4c0.5304 0 1.039-0.2107 1.414-0.5858s0.5858-0.8838 0.5858-1.414v-4c0-0.5304-0.2107-1.039-0.5858-1.414s-0.8838-0.5858-1.414-0.5858h-4z" fill="#101828"/>
</svg>
