<svg fill="none" version="1.1" viewBox="0 0 32 32" xmlns="http://www.w3.org/2000/svg">
 <path d="m8 29.5c0 0.2967-0.08797 0.5867-0.2528 0.8334-0.1648 0.2466-0.3991 0.4389-0.6732 0.5524-0.2741 0.1135-0.5757 0.1433-0.8667 0.0854-0.291-0.0579-0.5582-0.2008-0.768-0.4105-0.2098-0.2098-0.3526-0.4771-0.4105-0.7681-0.05788-0.2909-0.02817-0.5925 0.08536-0.8666s0.3058-0.5084 0.5525-0.6732c0.2467-0.1648 0.5367-0.2528 0.8334-0.2528 0.3978 0 0.7794 0.158 1.061 0.4393 0.2813 0.2813 0.4393 0.6629 0.4393 1.061zm2.5-5.5c-0.2967 0-0.5867 0.088-0.8334 0.2528-0.2467 0.1648-0.4389 0.3991-0.5525 0.6732s-0.1432 0.5757-0.08536 0.8666c0.05788 0.291 0.2007 0.5583 0.4105 0.7681 0.2098 0.2097 0.477 0.3526 0.7681 0.4105 0.2909 0.0579 0.5925 0.0281 0.8666-0.0854s0.5084-0.3058 0.6732-0.5524c0.1648-0.2467 0.2528-0.5367 0.2528-0.8334 0-0.3978-0.158-0.7794-0.4393-1.061s-0.6629-0.4393-1.061-0.4393zm-8 0c-0.2967 0-0.5867 0.088-0.8334 0.2528-0.2467 0.1648-0.4389 0.3991-0.5525 0.6732s-0.1432 0.5757-0.08536 0.8666c0.05788 0.291 0.2007 0.5583 0.4105 0.7681 0.2098 0.2097 0.477 0.3526 0.768 0.4105 0.291 0.0579 0.5926 0.0281 0.8667-0.0854 0.2741-0.1135 0.5084-0.3058 0.6732-0.5524 0.1648-0.2467 0.2528-0.5367 0.2528-0.8334 0-0.3978-0.158-0.7794-0.4393-1.061-0.2813-0.2813-0.6628-0.4393-1.061-0.4393zm4-4c-0.2967 0-0.5867 0.088-0.8334 0.2528-0.2467 0.1648-0.4389 0.3991-0.5525 0.6732s-0.1432 0.5757-0.08536 0.8666c0.05788 0.291 0.2007 0.5583 0.4105 0.7681 0.2098 0.2097 0.477 0.3526 0.768 0.4105 0.291 0.0579 0.5926 0.0281 0.8667-0.0854 0.2741-0.1135 0.5084-0.3058 0.6732-0.5524 0.1648-0.2467 0.2528-0.5367 0.2528-0.8334 0-0.3978-0.158-0.7794-0.4393-1.061-0.2813-0.2813-0.6628-0.4393-1.061-0.4393zm25.5-15c0 0.2652-0.1054 0.5196-0.2929 0.7071-0.1875 0.1875-0.4419 0.2929-0.7071 0.2929h-3.586l-3.481 3.482-2.708 15.85c-0.0609 0.3621-0.2204 0.7005-0.4608 0.9779-0.2405 0.2775-0.5527 0.4834-0.9025 0.5952-0.3497 0.1118-0.7235 0.1252-1.08 0.0387-0.3569-0.0866-0.683-0.2697-0.9426-0.5293l-12.25-12.25c-0.26-0.2598-0.4433-0.5863-0.5299-0.9436s-0.07294-0.7315 0.0393-1.082c0.1122-0.35 0.3188-0.6624 0.597-0.9027 0.2782-0.2403 0.6172-0.3993 0.9798-0.4595l15.84-2.709 3.775-3.775c0.0929-0.09283 0.2033-0.1664 0.3246-0.2166 0.1214-0.05018 0.2515-0.07596 0.3829-0.07586h4c0.2652 0 0.5196 0.1054 0.7071 0.2929 0.1875 0.1875 0.2929 0.4419 0.2929 0.7071zm-10.22 5.224-14.78 2.526 12.25 12.25 2.526-14.78z" fill="#101828"/>
</svg>
