<svg fill="none" version="1.1" viewBox="0 0 32 32" xmlns="http://www.w3.org/2000/svg">
 <path d="m2 5c0-0.7956 0.3161-1.559 0.8787-2.121s1.326-0.8787 2.121-0.8787h6c0.7956 0 1.559 0.3161 2.121 0.8787s0.8787 1.326 0.8787 2.121v6c0 0.7956-0.3161 1.559-0.8787 2.121s-1.326 0.8787-2.121 0.8787h-6c-0.7956 0-1.559-0.3161-2.121-0.8787s-0.8787-1.326-0.8787-2.121v-6zm3-1c-0.2652 0-0.5196 0.1054-0.7071 0.2929-0.1875 0.1875-0.2929 0.4419-0.2929 0.7071v6c0 0.2652 0.1054 0.5196 0.2929 0.7071 0.1875 0.1875 0.4419 0.2929 0.7071 0.2929h6c0.2652 0 0.5196-0.1054 0.7071-0.2929s0.2929-0.4419 0.2929-0.7071v-6c0-0.2652-0.1054-0.5196-0.2929-0.7071-0.1875-0.1875-0.4419-0.2929-0.7071-0.2929h-6zm13 1c0-0.7956 0.3161-1.559 0.8787-2.121s1.326-0.8787 2.121-0.8787h6c0.7956 0 1.559 0.3161 2.121 0.8787s0.8787 1.326 0.8787 2.121v6c0 0.7956-0.3161 1.559-0.8787 2.121s-1.326 0.8787-2.121 0.8787h-6c-0.7956 0-1.559-0.3161-2.121-0.8787s-0.8787-1.326-0.8787-2.121v-6zm3-1c-0.2652 0-0.5196 0.1054-0.7071 0.2929-0.1875 0.1875-0.2929 0.4419-0.2929 0.7071v6c0 0.2652 0.1054 0.5196 0.2929 0.7071s0.4419 0.2929 0.7071 0.2929h6c0.2652 0 0.5196-0.1054 0.7071-0.2929s0.2929-0.4419 0.2929-0.7071v-6c0-0.2652-0.1054-0.5196-0.2929-0.7071-0.1875-0.1875-0.4419-0.2929-0.7071-0.2929h-6zm-19 17c0-0.7956 0.3161-1.559 0.8787-2.121s1.326-0.8787 2.121-0.8787h6c0.7956 0 1.559 0.3161 2.121 0.8787s0.8787 1.326 0.8787 2.121v6c0 0.7956-0.3161 1.559-0.8787 2.121s-1.326 0.8787-2.121 0.8787h-6c-0.7956 0-1.559-0.3161-2.121-0.8787s-0.8787-1.326-0.8787-2.121v-6zm3-1c-0.2652 0-0.5196 0.1054-0.7071 0.2929-0.1875 0.1875-0.2929 0.4419-0.2929 0.7071v6c0 0.2652 0.1054 0.5196 0.2929 0.7071 0.1875 0.1875 0.4419 0.2929 0.7071 0.2929h6c0.2652 0 0.5196-0.1054 0.7071-0.2929s0.2929-0.4419 0.2929-0.7071v-6c0-0.2652-0.1054-0.5196-0.2929-0.7071s-0.4419-0.2929-0.7071-0.2929h-6zm13 1c0-0.7956 0.3161-1.559 0.8787-2.121s1.326-0.8787 2.121-0.8787h6c0.7956 0 1.559 0.3161 2.121 0.8787s0.8787 1.326 0.8787 2.121v6c0 0.7956-0.3161 1.559-0.8787 2.121s-1.326 0.8787-2.121 0.8787h-6c-0.7956 0-1.559-0.3161-2.121-0.8787s-0.8787-1.326-0.8787-2.121v-6zm3-1c-0.2652 0-0.5196 0.1054-0.7071 0.2929s-0.2929 0.4419-0.2929 0.7071v6c0 0.2652 0.1054 0.5196 0.2929 0.7071s0.4419 0.2929 0.7071 0.2929h6c0.2652 0 0.5196-0.1054 0.7071-0.2929s0.2929-0.4419 0.2929-0.7071v-6c0-0.2652-0.1054-0.5196-0.2929-0.7071s-0.4419-0.2929-0.7071-0.2929h-6z" fill="#101828"/>
</svg>
