<svg version="1.1" viewBox="0 0 20 20" xmlns="http://www.w3.org/2000/svg">
 <path d="m0.625 7.5c-0.09352 4e-5 -0.1858 0.02106-0.2702 0.06152s-0.1585 0.09933-0.217 0.1723c-0.05854 0.07294-0.09996 0.1581-0.1212 0.2492-0.02126 0.09107-0.02181 0.1858-0.001607 0.2771l2.065 9.292c0.1541 0.6941 0.5403 1.315 1.095 1.76s1.244 0.6875 1.955 0.6877h7.24c0.711-2e-4 1.401-0.2427 1.955-0.6877 0.5546-0.445 0.9408-1.066 1.095-1.76l0.1637-0.7375c0.9562 0.1788 1.944-0.0209 2.756-0.5569 0.8117-0.5361 1.383-1.367 1.594-2.316s0.0445-1.944-0.464-2.773c-0.5085-0.8292-1.319-1.428-2.261-1.671l0.2763-1.238c0.0202-0.09131 0.0197-0.186-0.0016-0.2771s-0.0627-0.1762-0.1212-0.2492c-0.0586-0.07293-0.1327-0.1318-0.217-0.1723-0.0844-0.04046-0.1767-0.06148-0.2702-0.06152zm15.63 8.125c-0.1323 1e-4 -0.2644-0.0104-0.395-0.0312l1.084-4.873c0.5782 0.1675 1.076 0.5378 1.404 1.043 0.3271 0.5052 0.4612 1.111 0.3774 1.708-0.0837 0.596-0.3795 1.142-0.8332 1.537-0.4536 0.3955-1.035 0.6142-1.637 0.6159zm-12.95 1.656-1.896-8.531h14.69l-1.896 8.531c-0.0924 0.4165-0.3241 0.789-0.6568 1.056-0.3328 0.267-0.7466 0.4126-1.173 0.4127h-7.24c-0.4266-1e-4 -0.8404-0.1457-1.173-0.4127-0.3327-0.2671-0.5644-0.6396-0.6568-1.056z" clip-rule="evenodd" fill="#101828" fill-rule="evenodd"/>
 <path d="m5.5 1-0.00375 0.004999-0.0175 0.02375c-0.09095 0.1252-0.176 0.2545-0.255 0.3875-0.06708 0.1066-0.126 0.2182-0.1762 0.3338-0.0325 0.075-0.0425 0.115-0.04625 0.1288v5e-3c0.01442 0.1105 0.05327 0.2164 0.1138 0.31 0.09375 0.1662 0.2225 0.34 0.385 0.5562l0.0125 0.015c0.1475 0.1975 0.325 0.4338 0.4625 0.6788 0.14 0.25 0.275 0.5688 0.275 0.9312 0 0.235-0.08125 0.46-0.1488 0.6175-0.07225 0.1676-0.1566 0.3297-0.2525 0.485-0.09806 0.1639-0.2036 0.3232-0.3162 0.4775l-0.0225 0.03125-0.00625 0.01-0.0025 0.0025c-0.09929 0.1328-0.2473 0.2207-0.4114 0.2443-0.1641 0.02368-0.3309-0.0188-0.4636-0.1181s-0.2207-0.2473-0.2443-0.4114c-0.02368-0.1641 0.0188-0.3309 0.1181-0.4636l0.00375-5e-3 0.0175-0.02375c0.09095-0.1252 0.176-0.2545 0.255-0.3875 0.06708-0.1066 0.126-0.2182 0.1762-0.3338 0.0325-0.075 0.0425-0.115 0.04625-0.1288-0.01331-0.1121-0.05177-0.2198-0.1125-0.315-0.116-0.1939-0.2451-0.3798-0.3862-0.5562l-0.0125-0.015c-0.1689-0.2159-0.3234-0.4426-0.4625-0.6788-0.1702-0.2816-0.265-0.6023-0.275-0.9312 0-0.235 0.08125-0.46 0.1488-0.6175 0.07375-0.1725 0.1675-0.3425 0.2525-0.485 0.0993-0.1631 0.2048-0.3224 0.3162-0.4775l0.03125-0.04375c0.09929-0.1328 0.2473-0.2207 0.4114-0.2443 0.1641-0.02368 0.3309 0.0188 0.4636 0.1181 0.1328 0.09929 0.2207 0.2473 0.2443 0.4114 0.02368 0.1641-0.0188 0.3309-0.1181 0.4636zm3.75 0-0.00375 0.004999-0.0175 0.02375c-0.09095 0.1252-0.176 0.2545-0.255 0.3875-0.06708 0.1066-0.126 0.2182-0.1762 0.3338-0.0325 0.075-0.0425 0.115-0.04625 0.1288v5e-3c0.01442 0.1105 0.05327 0.2164 0.1138 0.31 0.09375 0.1662 0.2225 0.34 0.385 0.5562l0.0125 0.015c0.1475 0.1975 0.325 0.4338 0.4625 0.6788 0.14 0.25 0.275 0.5688 0.275 0.9312 0 0.235-0.08125 0.46-0.1488 0.6175-0.07225 0.1676-0.1566 0.3297-0.2525 0.485-0.09806 0.1639-0.2036 0.3232-0.3162 0.4775l-0.0225 0.03125-0.00625 0.01-0.0025 0.0025c-0.09929 0.1328-0.2473 0.2207-0.4114 0.2443-0.1641 0.02368-0.3309-0.0188-0.4636-0.1181s-0.2207-0.2473-0.2443-0.4114c-0.02368-0.1641 0.0188-0.3309 0.1181-0.4636l0.00375-5e-3 0.0175-0.02375c0.09095-0.1252 0.176-0.2545 0.255-0.3875 0.06708-0.1066 0.126-0.2182 0.1762-0.3338 0.0325-0.075 0.0425-0.115 0.04625-0.1288-0.01331-0.1121-0.05177-0.2198-0.1125-0.315-0.116-0.1939-0.2451-0.3798-0.3862-0.5562l-0.0125-0.015c-0.1689-0.2159-0.3234-0.4426-0.4625-0.6788-0.1702-0.2816-0.265-0.6023-0.275-0.9312 0-0.235 0.08125-0.46 0.1488-0.6175 0.07375-0.1725 0.1675-0.3425 0.2525-0.485 0.0993-0.1631 0.2048-0.3224 0.3162-0.4775l0.03125-0.04375c0.09929-0.1328 0.2473-0.2207 0.4114-0.2443 0.1641-0.02368 0.3309 0.0188 0.4636 0.1181 0.1328 0.09929 0.2207 0.2473 0.2443 0.4114 0.02368 0.1641-0.0188 0.3309-0.1181 0.4636zm3.75 0-0.0037 0.004999-0.0175 0.02375c-0.091 0.1252-0.1761 0.2545-0.255 0.3875-0.0671 0.1066-0.126 0.2182-0.1763 0.3338-0.0325 0.075-0.0425 0.115-0.0462 0.1288v5e-3c0.0144 0.1105 0.0532 0.2164 0.1137 0.31 0.0937 0.1662 0.2225 0.34 0.385 0.5562l0.0125 0.015c0.1475 0.1975 0.325 0.4338 0.4625 0.6788 0.14 0.25 0.275 0.5688 0.275 0.9312 0 0.235-0.0813 0.46-0.1488 0.6175-0.0722 0.1676-0.1566 0.3297-0.2524 0.485-0.0977 0.1639-0.2028 0.3232-0.315 0.4775l-0.0238 0.03125-0.0063 0.01-0.0024 0.0025c-0.0993 0.1328-0.2473 0.2207-0.4114 0.2443-0.1641 0.02368-0.3309-0.0188-0.4636-0.1181-0.1328-0.09929-0.2207-0.2473-0.2444-0.4114-0.0237-0.1641 0.0188-0.3309 0.1181-0.4636l0.0037-5e-3 0.0175-0.02375c0.091-0.1252 0.1761-0.2545 0.255-0.3875 0.0671-0.1066 0.126-0.2182 0.1763-0.3338 0.0325-0.075 0.0425-0.115 0.0462-0.1288-0.0133-0.1121-0.0517-0.2198-0.1124-0.315-0.1161-0.1939-0.2451-0.3798-0.3863-0.5562l-0.0125-0.015c-0.1689-0.2159-0.3234-0.4426-0.4625-0.6788-0.1703-0.2816-0.265-0.6023-0.275-0.9312 0-0.235 0.0813-0.46 0.1488-0.6175 0.0737-0.1725 0.1675-0.3425 0.2524-0.485 0.0993-0.1631 0.2048-0.3224 0.3163-0.4775l0.0312-0.04375c0.0993-0.1328 0.2473-0.2207 0.4114-0.2443 0.1641-0.02368 0.3309 0.0188 0.4636 0.1181 0.1328 0.09929 0.2207 0.2473 0.2444 0.4114 0.0237 0.1641-0.0188 0.3309-0.1181 0.4636z" fill="#101828"/>
</svg>
