<svg fill="none" version="1.1" viewBox="0 0 16 16" xml:space="preserve" xmlns="http://www.w3.org/2000/svg"><path d="m1.716 15c-0.1365-0.03576-0.3431-0.1148-0.4591-0.1756-0.2571-0.1348-0.652-0.5191-0.7973-0.7758-0.2191-0.3871-0.3035-0.9547-0.2083-1.401 0.1286-0.6028 0.5948-1.161 1.177-1.409l0.2127-0.09067-0.008676-3.159-0.008676-3.159-0.1879-0.07635c-0.511-0.2077-0.9321-0.6554-1.126-1.198-0.112-0.3125-0.1254-0.8102-0.03093-1.154 0.176-0.6417 0.6359-1.131 1.285-1.366 1.25-0.4537 2.623 0.5376 2.627 1.897 7.645e-4 0.2461-0.1033 0.6493-0.2348 0.9099-0.1993 0.3948-0.7005 0.8309-1.099 0.9565l-0.1275 0.04016v2.613h4.727l-3.28e-4 -1.301-3.279e-4 -1.301-0.2972-0.1416c-0.7188-0.3425-1.135-0.992-1.14-1.78-0.002418-0.3741 0.05749-0.6162 0.2376-0.9603 0.2249-0.4295 0.6583-0.7903 1.138-0.9475 0.3527-0.1155 0.8598-0.1155 1.212 0 1.043 0.3418 1.621 1.466 1.286 2.503-0.1738 0.5376-0.5256 0.936-1.045 1.183l-0.3007 0.1431-0.00224 2.601h4.621l0.05294-0.07558c0.04554-0.06502 0.05294-0.2475 0.05294-1.306v-1.231l-0.1618-0.05375c-0.2359-0.07836-0.5529-0.2976-0.7712-0.5334-0.723-0.781-0.695-1.976 0.06424-2.736 0.7859-0.7859 2.012-0.7868 2.792-0.00206 0.4391 0.4418 0.6149 0.8933 0.5834 1.499-0.02857 0.551-0.2246 0.9802-0.6221 1.362-0.1569 0.1507-0.5284 0.3711-0.7372 0.4372-0.05521 0.01749-0.05953 0.1067-0.05971 1.236-1.09e-4 0.6692-0.01509 1.308-0.0333 1.419-0.06821 0.4165-0.3478 0.7806-0.7412 0.9649l-0.1944 0.09114-4.846 0.01916 0.00112 1.3 0.00112 1.3 0.3007 0.1431c0.5192 0.2472 0.871 0.6455 1.045 1.183 0.2767 0.8557-0.0626 1.792-0.8291 2.287-0.3252 0.2102-0.6364 0.2972-1.063 0.2972-0.285 0-0.4073-0.01647-0.6062-0.08163-1.043-0.3418-1.621-1.466-1.286-2.503 0.1736-0.5369 0.5267-0.9354 1.05-1.185l0.2972-0.1416 3.279e-4 -1.301 3.28e-4 -1.301h-4.727v2.613l0.1679 0.05576c0.39 0.1295 0.8606 0.5482 1.06 0.9426 0.1308 0.2592 0.2348 0.6628 0.2341 0.9084-0.00403 1.296-1.239 2.265-2.475 1.941zm0.7935-1.076c0.229-0.07801 0.464-0.318 0.5422-0.5536 0.2055-0.6186-0.2619-1.229-0.9076-1.186-0.4839 0.03265-0.8042 0.3529-0.8368 0.8368-0.04432 0.6569 0.5698 1.118 1.202 0.9025zm5.887-0.03949c0.5464-0.2787 0.6715-0.9466 0.2673-1.427-0.2329-0.2767-0.7183-0.3641-1.065-0.1916-0.7231 0.3603-0.6519 1.381 0.1162 1.667 0.1762 0.06562 0.503 0.04238 0.6811-0.04845zm-5.838-10.14c0.587-0.2654 0.7262-1.009 0.2737-1.461-0.563-0.563-1.528-0.1741-1.531 0.6172-0.00158 0.4027 0.2208 0.7302 0.5905 0.8696 0.1723 0.06499 0.4939 0.05266 0.6669-0.02559zm5.842-0.01698c0.3142-0.1566 0.4946-0.4456 0.497-0.7965 0.00252-0.3621-0.1733-0.6512-0.502-0.8252-0.1985-0.1051-0.5928-0.1051-0.7913 0-0.3286 0.1739-0.5045 0.463-0.502 0.8252 0.003524 0.5065 0.387 0.8842 0.8976 0.8842 0.1733 0 0.2649-0.02004 0.4006-0.08766zm5.801 0.00398c0.2902-0.1409 0.4681-0.416 0.4913-0.7594 0.05603-0.8305-0.9359-1.278-1.526-0.6888-0.4526 0.4526-0.3146 1.19 0.2737 1.463 0.1923 0.08918 0.5612 0.08201 0.7606-0.01479zm-0.8286 11.29c-0.9412-0.2029-1.623-1.111-1.554-2.069 0.03612-0.4978 0.2259-0.9107 0.5808-1.263 0.2857-0.2839 0.5227-0.4262 0.8702-0.5224 0.4649-0.1287 0.9476-0.08707 1.383 0.1194 0.3343 0.1586 0.5885 0.376 0.7874 0.6734 0.2299 0.3437 0.3158 0.6046 0.3376 1.025 0.03141 0.6056-0.1443 1.057-0.5834 1.499-0.483 0.4861-1.15 0.6831-1.822 0.5383zm0.8355-1.13c0.3202-0.1635 0.509-0.5006 0.4844-0.8647-0.03265-0.4839-0.3529-0.8042-0.8368-0.8368-0.8304-0.05602-1.278 0.9359-0.6889 1.525 0.0873 0.0873 0.2263 0.1834 0.3097 0.2139 0.2021 0.07411 0.5474 0.05628 0.7316-0.03778z" fill="#101828"/></svg>
