<svg fill="none" version="1.1" viewBox="0 0 16 16" xmlns="http://www.w3.org/2000/svg">
 <path d="m15.82 0.1128c0.0573 0.04694 0.1034 0.106 0.135 0.1729 0.0317 0.06693 0.048 0.14 0.048 0.2141v14c-1e-4 0.1156-0.0402 0.2275-0.1134 0.3169-0.0733 0.0893-0.1753 0.1505-0.2886 0.1731l-5 1c-0.0647 0.013-0.1313 0.013-0.196 0l-4.902-0.98-4.902 0.98c-0.07251 0.0145-0.1473 0.0127-0.2191-0.0052-0.07174-0.0179-0.1386-0.0515-0.1958-0.0983-0.0572-0.0469-0.1033-0.1059-0.1349-0.1727s-0.04811-0.1398-0.04815-0.2138v-14c6.978e-5 -0.1155 0.04016-0.2275 0.1134-0.3168 0.07329-0.08933 0.1753-0.1505 0.2886-0.1732l5-1c0.06469-0.01293 0.1313-0.01293 0.196 0l4.902 0.98 4.902-0.98c0.0725-0.01458 0.1473-0.01291 0.2191 0.0049 0.0717 0.01781 0.1386 0.05132 0.1959 0.0981zm-5.817 1.797-4-0.8v12.98l4 0.8zm1 12.98 4-0.8v-12.98l-4 0.8zm-6-0.8v-12.98l-4 0.8v12.98z" clip-rule="evenodd"/>
</svg>
