<svg fill="none" version="1.1" viewBox="0 0 32 32" xmlns="http://www.w3.org/2000/svg">
 <g stroke="#101828" stroke-linecap="round" stroke-linejoin="round" stroke-width="2">
  <path d="m26.67 5.333h-21.33c-1.473 0-2.667 1.194-2.667 2.667v14.67c0 1.473 1.194 2.667 2.667 2.667h21.33c1.473 0 2.667-1.194 2.667-2.667v-14.67c0-1.473-1.194-2.667-2.667-2.667z"/>
  <path d="m17.33 10.67h-8c-0.7364 0-1.333 0.597-1.333 1.333v6.667c0 0.7364 0.597 1.333 1.333 1.333h8c0.7364 0 1.333-0.597 1.333-1.333v-6.667c0-0.7364-0.597-1.333-1.333-1.333z"/>
  <path d="M24 10.6666V20M8 25.3333V28M24 25.3333V28"/>
 </g>
</svg>
