<svg fill="none" version="1.1" viewBox="0 0 20 20" xmlns="http://www.w3.org/2000/svg">
 <path d="m9.375 3.125c0-0.1658 0.06585-0.3247 0.1831-0.4419s0.2762-0.1831 0.4419-0.1831h8.75c0.1658 0 0.3247 0.06585 0.4419 0.1831 0.1173 0.1172 0.1831 0.2762 0.1831 0.4419v1.25c0 0.1658-0.0658 0.3247-0.1831 0.4419-0.1172 0.1172-0.2761 0.1831-0.4419 0.1831h-8.75c-0.1658 0-0.3247-0.06585-0.4419-0.1831s-0.1831-0.2762-0.1831-0.4419zm-8.75 11.88c0-0.9946 0.3951-1.948 1.098-2.652 0.7033-0.7032 1.657-1.098 2.652-1.098s1.948 0.3951 2.652 1.098c0.7033 0.7033 1.098 1.657 1.098 2.652s-0.3951 1.948-1.098 2.652c-0.7033 0.7032-1.657 1.098-2.652 1.098s-1.948-0.3951-2.652-1.098c-0.7033-0.7033-1.098-1.657-1.098-2.652zm8.75-1.875c0-0.1658 0.06585-0.3247 0.1831-0.4419 0.1172-0.1173 0.2762-0.1831 0.4419-0.1831h8.75c0.1658 0 0.3247 0.0658 0.4419 0.1831 0.1173 0.1172 0.1831 0.2761 0.1831 0.4419v1.25c0 0.1658-0.0658 0.3247-0.1831 0.4419-0.1172 0.1173-0.2761 0.1831-0.4419 0.1831h-8.75c-0.1658 0-0.3247-0.0658-0.4419-0.1831-0.1172-0.1172-0.1831-0.2761-0.1831-0.4419zm0-6.25c0-0.1658 0.06585-0.3247 0.1831-0.4419s0.2762-0.1831 0.4419-0.1831h6.25c0.1658 0 0.3247 0.06585 0.4419 0.1831 0.1173 0.1172 0.1831 0.2762 0.1831 0.4419s-0.0658 0.3247-0.1831 0.4419c-0.1172 0.1172-0.2761 0.1831-0.4419 0.1831h-6.25c-0.1658 0-0.3247-0.06585-0.4419-0.1831s-0.1831-0.2762-0.1831-0.4419zm0 10c0-0.1658 0.06585-0.3247 0.1831-0.4419 0.1172-0.1173 0.2762-0.1831 0.4419-0.1831h6.25c0.1658 0 0.3247 0.0658 0.4419 0.1831 0.1173 0.1172 0.1831 0.2761 0.1831 0.4419s-0.0658 0.3247-0.1831 0.4419c-0.1172 0.1173-0.2761 0.1831-0.4419 0.1831h-6.25c-0.1658 0-0.3247-0.0658-0.4419-0.1831-0.1172-0.1172-0.1831-0.2761-0.1831-0.4419zm-5-15.62c-0.4925 0-0.9801 0.097-1.435 0.2854-0.455 0.1885-0.8684 0.4647-1.217 0.8129s-0.6244 0.7616-0.8129 1.217c-0.1885 0.455-0.2855 0.9426-0.2855 1.435s0.097 0.9801 0.2855 1.435c0.1885 0.455 0.4647 0.8684 0.8129 1.217s0.7616 0.6244 1.217 0.8129c0.455 0.1884 0.9426 0.2854 1.435 0.2854 0.9946 0 1.948-0.3951 2.652-1.098s1.098-1.657 1.098-2.652-0.3951-1.948-1.098-2.652-1.657-1.098-2.652-1.098zm0 5.625c-0.4973 0-0.9742-0.1975-1.326-0.5492-0.3516-0.3516-0.5492-0.8286-0.5492-1.326s0.1975-0.9742 0.5492-1.326c0.3516-0.3516 0.8286-0.5492 1.326-0.5492s0.9742 0.1975 1.326 0.5492c0.3516 0.3516 0.5492 0.8286 0.5492 1.326s-0.1975 0.9742-0.5492 1.326c-0.3516 0.3516-0.8286 0.5492-1.326 0.5492z" fill="#101828"/>
</svg>
