<svg version="1.1" viewBox="0 0 32 32" xmlns="http://www.w3.org/2000/svg">
 <path d="m23.67 9.333c0-0.2652-0.1054-0.5196-0.2929-0.7071-0.1876-0.1875-0.4419-0.2929-0.7071-0.2929-0.2653 0-0.5196 0.1054-0.7071 0.2929-0.1876 0.1875-0.2929 0.4419-0.2929 0.7071v2.667c0 0.2652 0.1053 0.5195 0.2929 0.7071 0.1875 0.1875 0.4418 0.2929 0.7071 0.2929 0.2652 0 0.5195-0.1054 0.7071-0.2929 0.1875-0.1876 0.2929-0.4419 0.2929-0.7071v-2.667zm0 9.333c0-0.2652-0.1054-0.5195-0.2929-0.7071-0.1876-0.1875-0.4419-0.2929-0.7071-0.2929-0.2653 0-0.5196 0.1054-0.7071 0.2929-0.1876 0.1876-0.2929 0.4419-0.2929 0.7071v2.667c0 0.2652 0.1053 0.5196 0.2929 0.7071 0.1875 0.1876 0.4418 0.2929 0.7071 0.2929 0.2652 0 0.5195-0.1053 0.7071-0.2929 0.1875-0.1875 0.2929-0.4419 0.2929-0.7071v-2.667z" fill="#101828"/>
 <path d="m16.07 1.667h-0.1494c-2.451 0-4.392 0-5.911 0.204-1.563 0.2107-2.828 0.6533-3.827 1.651-0.9973 0.9987-1.44 2.264-1.651 3.827-0.204 1.52-0.204 3.46-0.204 5.911v4.149c0 2.451 0 4.392 0.204 5.911 0.2107 1.563 0.6533 2.828 1.651 3.827 0.6133 0.612 1.325 1.015 2.145 1.284v0.904c0 0.552 0.448 1 1 1h1.333c0.2652 0 0.5195-0.1054 0.7071-0.2929 0.1875-0.1876 0.2929-0.4419 0.2929-0.7071v-0.3947c1.209 0.0613 2.62 0.0613 4.259 0.0613h0.1494c1.64 0 3.049 0 4.259-0.0613v0.3947c0 0.552 0.448 1 1 1h1.333c0.2652 0 0.5195-0.1054 0.7071-0.2929 0.1875-0.1876 0.2929-0.4419 0.2929-0.7071v-0.904c0.82-0.2694 1.533-0.672 2.145-1.284 0.9973-0.9987 1.44-2.264 1.651-3.827 0.204-1.52 0.204-3.46 0.204-5.911v-4.148c0-2.451 0-4.392-0.204-5.911-0.2107-1.563-0.6534-2.828-1.651-3.827-0.9987-0.9973-2.264-1.44-3.827-1.651-1.52-0.204-3.46-0.204-5.911-0.204m-8.472 3.268c0.564-0.564 1.337-0.9027 2.679-1.083 1.371-0.184 3.176-0.1867 5.719-0.1867s4.349 0.00266 5.72 0.1867c1.34 0.18 2.113 0.5187 2.677 1.083s0.9027 1.337 1.083 2.679c0.184 1.371 0.1867 3.176 0.1867 5.719v1h-19.33v-1c0-2.543 0.00267-4.348 0.1867-5.72 0.18-1.34 0.5187-2.113 1.083-2.677zm-1.269 11.4h19.33v1c0 2.543-0.0027 4.349-0.1867 5.72-0.18 1.34-0.5187 2.113-1.083 2.677s-1.337 0.9027-2.679 1.083c-1.371 0.184-3.176 0.1866-5.719 0.1866s-4.348-0.0026-5.72-0.1866c-1.34-0.18-2.113-0.5187-2.677-1.083s-0.9027-1.337-1.083-2.679c-0.184-1.369-0.1867-3.176-0.1867-5.719v-1z" clip-rule="evenodd" fill="#101828" fill-rule="evenodd"/>
</svg>
