<svg fill="none" version="1.1" viewBox="0 0 32 32" xmlns="http://www.w3.org/2000/svg">
 <path d="m0 8s0-4 4-4h24s4 0 4 4v12s0 4-4 4h-8c0 1.333 0.1667 2.333 0.5 3h1.5c0.2652 0 0.5196 0.1054 0.7071 0.2929s0.2929 0.4419 0.2929 0.7071-0.1054 0.5196-0.2929 0.7071-0.4419 0.2929-0.7071 0.2929h-12c-0.2652 0-0.5196-0.1054-0.7071-0.2929-0.1875-0.1875-0.2929-0.4419-0.2929-0.7071s0.1054-0.5196 0.2929-0.7071c0.1875-0.1875 0.4419-0.2929 0.7071-0.2929h1.5c0.3333-0.6667 0.5-1.667 0.5-3h-8s-4 0-4-4v-12zm2.796-1.71c-0.2196 0.1531-0.3948 0.3614-0.508 0.604-0.1685 0.353-0.2663 0.7355-0.288 1.126v11.98c0 0.65 0.156 1.004 0.29 1.204 0.14 0.208 0.3413 0.3773 0.604 0.508 0.3377 0.1616 0.7026 0.2586 1.076 0.286l0.05 2e-3h23.98c0.65 0 1.004-0.156 1.204-0.29 0.2196-0.1531 0.3948-0.3614 0.508-0.604 0.1616-0.3377 0.2586-0.7026 0.286-1.076l2e-3 -0.05v-11.98c0-0.65-0.156-1.004-0.29-1.204-0.1531-0.2196-0.3614-0.3948-0.604-0.508-0.353-0.1685-0.7355-0.2663-1.126-0.288h-23.98c-0.65 0-1.004 0.156-1.204 0.29z" fill="#101828"/>
</svg>
