<svg fill="none" version="1.1" viewBox="0 0 32 32" xmlns="http://www.w3.org/2000/svg">
 <path d="m12 2h-10v28h10zm18 0h-10v10h10zm0 18v10h-10v-10zm-30-18c0-0.5304 0.2107-1.039 0.5858-1.414 0.3751-0.3751 0.8838-0.5858 1.414-0.5858h10c0.5304 0 1.039 0.2107 1.414 0.5858 0.3751 0.3751 0.5858 0.8838 0.5858 1.414v28c0 0.5304-0.2107 1.039-0.5858 1.414s-0.8838 0.5858-1.414 0.5858h-10c-0.5304 0-1.039-0.2107-1.414-0.5858-0.3751-0.3751-0.5858-0.8838-0.5858-1.414zm18 0c0-0.5304 0.2107-1.039 0.5858-1.414 0.3751-0.3751 0.8838-0.5858 1.414-0.5858h10c0.5304 0 1.039 0.2107 1.414 0.5858 0.3751 0.3751 0.5858 0.8838 0.5858 1.414v10c0 0.5304-0.2107 1.039-0.5858 1.414s-0.8838 0.5858-1.414 0.5858h-10c-0.5304 0-1.039-0.2107-1.414-0.5858s-0.5858-0.8838-0.5858-1.414zm2 16c-0.5304 0-1.039 0.2107-1.414 0.5858s-0.5858 0.8838-0.5858 1.414v10c0 0.5304 0.2107 1.039 0.5858 1.414s0.8838 0.5858 1.414 0.5858h10c0.5304 0 1.039-0.2107 1.414-0.5858s0.5858-0.8838 0.5858-1.414v-10c0-0.5304-0.2107-1.039-0.5858-1.414s-0.8838-0.5858-1.414-0.5858z" fill="#101828"/>
</svg>
